<svg width="1024" height="1166" xmlns="http://www.w3.org/2000/svg" xmlns:xlink="http://www.w3.org/1999/xlink" xml:space="preserve" overflow="hidden"><defs><clipPath id="clip0"><rect x="1728" y="666" width="1024" height="1166"/></clipPath></defs><g clip-path="url(#clip0)" transform="translate(-1728 -666)"><path d="M1761 771.438C1761 713.206 1808.21 666 1866.44 666L2432.56 666C2490.79 666 2538 713.206 2538 771.438L2538 1726.56C2538 1784.79 2490.79 1832 2432.56 1832L1866.44 1832C1808.21 1832 1761 1784.79 1761 1726.56Z" fill="#1C2335" fill-rule="evenodd"/><path d="M1840 767.594C1840 711.485 1885.49 666 1941.59 666L2436.41 666C2492.51 666 2538 711.485 2538 767.594L2538 1730.41C2538 1786.51 2492.51 1832 2436.41 1832L1941.59 1832C1885.49 1832 1840 1786.51 1840 1730.41Z" fill="#333F59" fill-rule="evenodd"/><path d="M1728 961.5C1728 942.999 1743 928 1761.5 928L1761.5 928C1780 928 1795 942.999 1795 961.5L1795 1117.5C1795 1136 1780 1151 1761.5 1151L1761.5 1151C1743 1151 1728 1136 1728 1117.5Z" fill="#1C2335" fill-rule="evenodd"/><path d="M1728 1205.5C1728 1187 1743 1172 1761.5 1172L1761.5 1172C1780 1172 1795 1187 1795 1205.5L1795 1361.5C1795 1380 1780 1395 1761.5 1395L1761.5 1395C1743 1395 1728 1380 1728 1361.5Z" fill="#1C2335" fill-rule="evenodd"/><path d="M1761.3 1171.8C1779.91 1171.8 1795 1186.79 1795 1205.28 1795 1257.36 1795 1309.44 1795 1361.52 1795 1380.01 1779.91 1395 1761.3 1395L1761.3 1395 1760 1394.74 1760 1172.06ZM1761.3 928C1779.91 928 1795 942.99 1795 961.48 1795 1013.56 1795 1065.64 1795 1117.72 1795 1136.21 1779.91 1151.2 1761.3 1151.2L1761.3 1151.2 1760 1150.94 1760 928.26Z" fill="#333F59" fill-rule="evenodd"/><path d="M1953 862.083C1953 813.436 1992.44 774 2041.08 774L2663.92 774C2712.56 774 2752 813.436 2752 862.083L2752 1302.92C2752 1351.56 2712.56 1391 2663.92 1391L2041.08 1391C1992.44 1391 1953 1351.56 1953 1302.92Z" fill="#4A91FD" fill-rule="evenodd"/><path d="M2122 1703.5C2122 1670.64 2148.64 1644 2181.5 1644L2197.5 1644C2230.36 1644 2257 1670.64 2257 1703.5L2257 1703.5C2257 1736.36 2230.36 1763 2197.5 1763L2181.5 1763C2148.64 1763 2122 1736.36 2122 1703.5Z" fill="#1C2335" fill-rule="evenodd"/><path d="M2507 856.5C2507 823.639 2533.64 797 2566.5 797L2667.5 797C2700.36 797 2727 823.639 2727 856.5L2727 856.5C2727 889.361 2700.36 916 2667.5 916L2566.5 916C2533.64 916 2507 889.361 2507 856.5Z" fill="#FFFFFF" fill-rule="evenodd"/><path d="M2184.73 1264.29C2174.84 1264.29 2167.33 1267.14 2162.2 1272.83 2157.07 1278.52 2154.5 1286.6 2154.5 1297.06L2154.5 1302.85 2214.41 1302.32 2214.41 1296.79C2214.41 1286.32 2211.94 1278.29 2206.99 1272.69 2202.04 1267.09 2194.62 1264.29 2184.73 1264.29ZM2184.73 1237.57C2197.37 1237.57 2208.41 1240.05 2217.85 1245.01 2227.28 1249.97 2234.61 1256.9 2239.83 1265.8 2245.05 1274.71 2247.67 1285.13 2247.67 1297.06L2247.67 1324.33 2154.5 1324.33 2154.5 1335.07C2154.5 1345.72 2157.07 1353.75 2162.2 1359.17 2167.33 1364.59 2174.93 1367.29 2185.01 1367.29 2192.7 1367.29 2198.93 1365.96 2203.69 1363.3 2208.46 1360.64 2211.48 1356.74 2212.76 1351.6L2246.57 1351.6C2244 1364.63 2237.08 1375.05 2225.82 1382.86L2208.45 1391 2161.99 1391 2151.2 1387.12C2141.67 1382.17 2134.3 1375.24 2129.08 1366.33 2123.86 1357.43 2121.25 1347.01 2121.25 1335.07L2121.25 1297.06C2121.25 1285.13 2123.86 1274.71 2129.08 1265.8 2134.3 1256.9 2141.67 1249.97 2151.2 1245.01 2160.73 1240.05 2171.91 1237.57 2184.73 1237.57ZM2322.14 1221.6 2322.42 1283.57 2354.85 1283.57C2364.56 1283.75 2372.3 1281 2378.07 1275.31 2383.84 1269.61 2386.64 1262.09 2386.45 1252.72 2386.45 1243.17 2383.61 1235.6 2377.93 1230 2372.25 1224.4 2364.56 1221.69 2354.85 1221.88ZM1992.35 1221.05 1992.35 1281.64 2021.48 1281.64C2031.2 1281.64 2038.8 1278.98 2044.3 1273.65 2049.79 1268.33 2052.54 1260.98 2052.54 1251.62 2052.54 1242.07 2049.79 1234.59 2044.3 1229.17 2038.8 1223.76 2031.2 1221.05 2021.48 1221.05ZM2288.07 1190.75 2354.85 1190.75C2368.22 1190.75 2379.86 1193.28 2389.75 1198.33 2399.64 1203.38 2407.39 1210.58 2412.97 1219.95 2418.56 1229.31 2421.26 1240.15 2421.08 1252.45 2421.26 1264.93 2418.56 1275.86 2412.97 1285.22 2407.39 1294.59 2399.69 1301.79 2389.89 1306.84 2380.09 1311.89 2368.41 1314.51 2354.85 1314.69L2322.14 1314.42 2322.42 1391 2288.07 1391ZM1958 1190.75 2021.48 1190.75C2034.86 1190.75 2046.45 1193.23 2056.25 1198.19 2066.05 1203.15 2073.7 1210.08 2079.2 1218.98 2084.69 1227.89 2087.44 1238.4 2087.44 1250.52 2087.44 1263.74 2084.1 1275.4 2077.41 1285.5 2070.72 1295.6 2061.7 1302.76 2050.34 1306.98L2089.81 1391 2051.36 1391 2016.81 1311.94 1992.35 1311.94 1992.35 1376.21 1991.84 1375.93C1977.79 1366.42 1966.63 1352.95 1959.95 1337.12L1958 1330.82ZM2680.24 1188C2693.25 1188 2704.47 1190.43 2713.91 1195.3 2723.34 1200.16 2730.67 1207 2735.89 1215.82 2741.11 1224.63 2743.82 1235.19 2744 1247.49L2709.65 1247.21C2709.46 1237.85 2706.85 1230.64 2701.81 1225.59 2696.78 1220.54 2689.58 1218.02 2680.24 1218.02 2670.9 1218.2 2663.61 1220.77 2658.39 1225.73 2653.17 1230.69 2650.65 1237.85 2650.83 1247.21L2650.83 1335.07C2650.65 1344.62 2653.17 1351.87 2658.39 1356.83 2663.61 1361.79 2670.9 1364.36 2680.24 1364.54 2689.58 1364.54 2696.82 1362.02 2701.95 1356.97 2707.08 1351.92 2709.56 1344.62 2709.37 1335.07L2743.73 1335.35 2743.29 1339.4 2725.96 1365.16C2710.03 1381.13 2688.02 1391 2663.71 1391L2657.25 1391 2646.57 1387.26C2636.96 1382.4 2629.54 1375.51 2624.31 1366.61 2619.09 1357.7 2616.48 1347.19 2616.48 1335.07L2616.48 1247.49C2616.48 1235.19 2619.09 1224.63 2624.31 1215.82 2629.54 1207 2636.96 1200.16 2646.57 1195.3 2656.19 1190.43 2667.42 1188 2680.24 1188ZM2515.35 1188C2528.35 1188 2539.58 1190.43 2549.01 1195.3 2558.45 1200.16 2565.78 1207 2571 1215.82 2576.22 1224.63 2578.92 1235.19 2579.1 1247.49L2544.75 1247.21C2544.57 1237.85 2541.96 1230.64 2536.92 1225.59 2531.88 1220.54 2524.69 1218.02 2515.35 1218.02 2506 1218.2 2498.72 1220.77 2493.5 1225.73 2488.28 1230.69 2485.76 1237.85 2485.94 1247.21L2485.94 1335.07C2485.76 1344.62 2488.28 1351.87 2493.5 1356.83 2498.72 1361.79 2506 1364.36 2515.35 1364.54 2524.69 1364.54 2531.93 1362.02 2537.06 1356.97 2542.19 1351.92 2544.66 1344.62 2544.48 1335.07L2578.83 1335.35C2579.01 1347.1 2576.45 1357.47 2571.14 1366.47 2565.82 1375.47 2558.45 1382.4 2549.01 1387.26L2538.43 1391 2492.35 1391 2481.68 1387.26C2472.06 1382.4 2464.64 1375.51 2459.42 1366.61 2454.2 1357.7 2451.59 1347.19 2451.59 1335.07L2451.59 1247.49C2451.59 1235.19 2454.2 1224.63 2459.42 1215.82 2464.64 1207 2472.06 1200.16 2481.68 1195.3 2491.3 1190.43 2502.52 1188 2515.35 1188Z" fill="#023A8C" fill-rule="evenodd"/><path d="M2200.09 1276.22C2190.18 1276.22 2182.66 1279.06 2177.52 1284.75 2172.38 1290.44 2169.81 1298.51 2169.81 1308.96L2169.81 1314.74 2229.82 1314.21 2229.82 1308.69C2229.82 1298.23 2227.34 1290.21 2222.39 1284.61 2217.43 1279.02 2210 1276.22 2200.09 1276.22ZM2200.09 1249.53C2212.75 1249.53 2223.81 1252.01 2233.26 1256.96 2242.71 1261.91 2250.05 1268.84 2255.28 1277.73 2260.51 1286.63 2263.12 1297.04 2263.12 1308.96L2263.12 1336.2 2169.81 1336.2 2169.81 1346.94C2169.81 1357.58 2172.38 1365.6 2177.52 1371.01 2182.66 1376.42 2190.27 1379.13 2200.37 1379.13 2208.07 1379.13 2214.31 1377.8 2219.08 1375.14 2223.85 1372.48 2226.88 1368.58 2228.17 1363.45L2262.02 1363.45C2260.74 1369.96 2258.37 1375.82 2254.9 1381.02L2244.92 1391 2155.19 1391 2153.81 1390.03C2150.12 1386.57 2146.97 1382.61 2144.35 1378.17 2139.12 1369.27 2136.51 1358.86 2136.51 1346.94L2136.51 1308.96C2136.51 1297.04 2139.12 1286.63 2144.35 1277.73 2149.58 1268.84 2156.97 1261.91 2166.51 1256.96 2176.05 1252.01 2187.24 1249.53 2200.09 1249.53ZM2337.72 1233.57 2338 1295.48 2370.48 1295.48C2380.2 1295.66 2387.96 1292.91 2393.74 1287.23 2399.52 1281.54 2402.32 1274.02 2402.13 1264.66 2402.13 1255.12 2399.29 1247.56 2393.6 1241.96 2387.91 1236.37 2380.2 1233.66 2370.48 1233.84ZM2007.41 1233.02 2007.41 1293.55 2036.59 1293.55C2046.31 1293.55 2053.93 1290.89 2059.43 1285.57 2064.94 1280.26 2067.69 1272.92 2067.69 1263.56 2067.69 1254.02 2064.94 1246.55 2059.43 1241.14 2053.93 1235.72 2046.31 1233.02 2036.59 1233.02ZM2303.59 1202.75 2370.48 1202.75C2383.87 1202.75 2395.53 1205.27 2405.44 1210.32 2415.34 1215.36 2423.1 1222.56 2428.69 1231.92 2434.29 1241.27 2437 1252.1 2436.81 1264.39 2437 1276.86 2434.29 1287.78 2428.69 1297.13 2423.1 1306.49 2415.39 1313.69 2405.57 1318.73 2395.75 1323.78 2384.06 1326.39 2370.48 1326.57L2337.72 1326.3 2337.95 1391 2303.59 1391ZM1973 1202.75 2036.59 1202.75C2049.98 1202.75 2061.59 1205.23 2071.41 1210.18 2081.22 1215.13 2088.89 1222.06 2094.39 1230.96 2099.9 1239.85 2102.65 1250.35 2102.65 1262.46 2102.65 1275.67 2099.3 1287.32 2092.6 1297.41 2085.9 1307.5 2076.87 1314.65 2065.49 1318.87L2099.46 1391 2061.34 1391 2031.91 1323.82 2007.41 1323.82 2007.41 1384.55 2005.87 1384.07C1995.33 1379.61 1985.83 1373.16 1977.85 1365.18L1973 1358ZM2696.39 1200C2709.41 1200 2720.65 1202.43 2730.11 1207.29 2734.83 1209.72 2739.03 1212.65 2742.7 1216.06L2752 1227.63 2752 1259.37 2725.84 1259.16C2725.66 1249.8 2723.04 1242.6 2717.99 1237.56 2712.95 1232.51 2705.74 1229.99 2696.39 1229.99 2687.03 1230.18 2679.73 1232.74 2674.5 1237.7 2669.27 1242.65 2666.75 1249.8 2666.93 1259.16L2666.93 1346.94C2666.75 1356.47 2669.27 1363.72 2674.5 1368.67 2679.73 1373.63 2687.03 1376.19 2696.39 1376.38 2705.74 1376.38 2712.99 1373.86 2718.13 1368.81 2723.27 1363.77 2725.75 1356.47 2725.56 1346.94L2738.41 1347.04 2726.18 1365.18C2710.22 1381.13 2688.18 1391 2663.83 1391L2650.92 1391 2649.87 1390.27C2646.15 1386.83 2642.99 1382.89 2640.37 1378.44 2635.14 1369.54 2632.53 1359.04 2632.53 1346.94L2632.53 1259.43C2632.53 1247.14 2635.14 1236.6 2640.37 1227.79 2645.6 1218.99 2653.03 1212.15 2662.67 1207.29 2672.3 1202.43 2683.54 1200 2696.39 1200ZM2531.23 1200C2544.26 1200 2555.5 1202.43 2564.95 1207.29 2574.4 1212.15 2581.74 1218.99 2586.97 1227.79 2592.2 1236.6 2594.91 1247.14 2595.09 1259.43L2560.68 1259.16C2560.5 1249.8 2557.88 1242.6 2552.84 1237.56 2547.79 1232.51 2540.59 1229.99 2531.23 1229.99 2521.87 1230.18 2514.58 1232.74 2509.35 1237.7 2504.12 1242.65 2501.59 1249.8 2501.78 1259.16L2501.78 1346.94C2501.59 1356.47 2504.12 1363.72 2509.35 1368.67 2514.58 1373.63 2521.87 1376.19 2531.23 1376.38 2540.59 1376.38 2547.84 1373.86 2552.97 1368.81 2558.11 1363.77 2560.59 1356.47 2560.41 1346.94L2594.81 1347.21C2595 1358.95 2592.43 1369.32 2587.11 1378.3 2584.45 1382.8 2581.27 1386.78 2577.58 1390.24L2576.49 1391 2485.77 1391 2484.71 1390.27C2480.99 1386.83 2477.83 1382.89 2475.21 1378.44 2469.98 1369.54 2467.37 1359.04 2467.37 1346.94L2467.37 1259.43C2467.37 1247.14 2469.98 1236.6 2475.21 1227.79 2480.44 1218.99 2487.88 1212.15 2497.51 1207.29 2507.14 1202.43 2518.38 1200 2531.23 1200Z" fill="#0359D7" fill-rule="evenodd"/></g></svg>